<svg xmlns="http://www.w3.org/2000/svg" viewBox="0 0 1200 675" width="1200" height="675" preserveAspectRatio="xMidYMid slice">
  <defs>
    <linearGradient id="bg" x1="0" y1="0" x2="1" y2="1">
      <stop offset="0%" stop-color="#0c0c0c"/>
      <stop offset="100%" stop-color="#151515"/>
    </linearGradient>
  </defs>
  <rect width="100%" height="100%" fill="url(#bg)"/>
  <g stroke="#ffffff" stroke-opacity="0.08">
    
    <g>
      <script type="application/ecmascript"><![CDATA[]]></script>
    </g>
    
    <!-- vertical lines -->
    <g>
      <path d="M 0 0 V 675"/>
      <path d="M 60 0 V 675"/>
      <path d="M 120 0 V 675"/>
      <path d="M 180 0 V 675"/>
      <path d="M 240 0 V 675"/>
      <path d="M 300 0 V 675"/>
      <path d="M 360 0 V 675"/>
      <path d="M 420 0 V 675"/>
      <path d="M 480 0 V 675"/>
      <path d="M 540 0 V 675"/>
      <path d="M 600 0 V 675"/>
      <path d="M 660 0 V 675"/>
      <path d="M 720 0 V 675"/>
      <path d="M 780 0 V 675"/>
      <path d="M 840 0 V 675"/>
      <path d="M 900 0 V 675"/>
      <path d="M 960 0 V 675"/>
      <path d="M 1020 0 V 675"/>
      <path d="M 1080 0 V 675"/>
      <path d="M 1140 0 V 675"/>
      <path d="M 1200 0 V 675"/>
    </g>
    <!-- horizontal lines -->
    <g>
      <path d="M 0 0 H 1200"/>
      <path d="M 0 60 H 1200"/>
      <path d="M 0 120 H 1200"/>
      <path d="M 0 180 H 1200"/>
      <path d="M 0 240 H 1200"/>
      <path d="M 0 300 H 1200"/>
      <path d="M 0 360 H 1200"/>
      <path d="M 0 420 H 1200"/>
      <path d="M 0 480 H 1200"/>
      <path d="M 0 540 H 1200"/>
      <path d="M 0 600 H 1200"/>
      <path d="M 0 660 H 1200"/>
    </g>
  </g>
</svg>

