<svg xmlns="http://www.w3.org/2000/svg" viewBox="0 0 1200 675" width="1200" height="675" aria-hidden="true">
  <defs>
    <linearGradient id="bg" x1="0" y1="0" x2="1" y2="1">
      <stop offset="0%" stop-color="#0b0b0b"/>
      <stop offset="100%" stop-color="#141414"/>
    </linearGradient>
    <linearGradient id="gold" x1="0" y1="0" x2="0" y2="1">
      <stop offset="0%" stop-color="#2D8FD0" stop-opacity="0.55"/>
      <stop offset="100%" stop-color="#006DB6" stop-opacity="0.18"/>
    </linearGradient>
  </defs>
  <rect width="100%" height="100%" fill="url(#bg)"/>
  <g transform="translate(600,350)">
    <path d="M0,-180 L150,-120 L150,0 C150,90 60,150 0,180 C-60,150 -150,90 -150,0 L-150,-120 Z" fill="#0f0f0f" stroke="#ffffff" stroke-opacity="0.08"/>
    <path d="M0,-150 L120,-105 L120,0 C120,70 50,120 0,150 C-50,120 -120,70 -120,0 L-120,-105 Z" fill="url(#gold)"/>
    <path d="M-30,10 L-5,35 L45,-25" stroke="#8EC5F1" stroke-width="10" stroke-linecap="round" stroke-linejoin="round" fill="none"/>
  </g>
</svg>
